<svg width="23" height="23" viewBox="0 0 23 23" fill="none" xmlns="http://www.w3.org/2000/svg">
<path d="M9.72069 6.35144C10.4745 4.47215 10.8514 3.5325 11.4996 3.5325C12.1477 3.5325 12.5246 4.47215 13.2785 6.35144L13.3136 6.43895C13.7394 7.50066 13.9524 8.03151 14.3864 8.35417C14.8203 8.67683 15.39 8.72785 16.5294 8.82989L16.7354 8.84834C18.6001 9.01534 19.5325 9.09884 19.732 9.69203C19.9315 10.2852 19.2391 10.9152 17.8543 12.1751L17.3921 12.5956C16.6911 13.2334 16.3405 13.5523 16.1772 13.9702C16.1467 14.0482 16.1214 14.1281 16.1013 14.2093C15.9939 14.6451 16.0966 15.1077 16.3019 16.0329L16.3658 16.3209C16.743 18.0213 16.9317 18.8715 16.6023 19.2382C16.4792 19.3753 16.3193 19.4739 16.1416 19.5224C15.6661 19.6522 14.9909 19.102 13.6407 18.0018C12.7541 17.2793 12.3108 16.9181 11.8018 16.8368C11.6016 16.8049 11.3976 16.8049 11.1974 16.8368C10.6884 16.9181 10.2451 17.2793 9.35847 18.0018C8.00822 19.102 7.3331 19.6522 6.85757 19.5224C6.67988 19.4739 6.51993 19.3753 6.39685 19.2382C6.06749 18.8715 6.25613 18.0213 6.6334 16.3209L6.6973 16.0329C6.90258 15.1077 7.00522 14.6451 6.89784 14.2093C6.87781 14.1281 6.85247 14.0482 6.822 13.9702C6.65862 13.5523 6.30811 13.2334 5.60708 12.5956L5.1449 12.1751C3.76006 10.9152 3.06765 10.2852 3.26715 9.69203C3.46666 9.09884 4.39903 9.01534 6.26376 8.84834L6.46975 8.82989C7.60912 8.72785 8.17881 8.67683 8.61279 8.35417C9.04677 8.03151 9.25971 7.50065 9.68559 6.43895L9.72069 6.35144Z" stroke="#A5C3CB"/>
</svg>
