<svg width="23" height="23" viewBox="0 0 23 23" fill="none" xmlns="http://www.w3.org/2000/svg">
<path d="M9.87813 6.91907C10.4935 5.38508 10.8011 4.61808 11.301 4.51178C11.4324 4.48383 11.5682 4.48383 11.6997 4.51178C12.1995 4.61808 12.5072 5.38508 13.1225 6.91907C13.4724 7.79142 13.6474 8.22759 13.9747 8.52426C14.0666 8.60747 14.1663 8.68158 14.2724 8.74555C14.6508 8.97361 15.1231 9.01592 16.0678 9.10052C17.6671 9.24375 18.4667 9.31536 18.7109 9.77128C18.7614 9.8657 18.7958 9.96794 18.8126 10.0737C18.8935 10.5846 18.3057 11.1194 17.13 12.189L16.8036 12.486C16.2539 12.9861 15.9791 13.2361 15.8201 13.5481C15.7248 13.7353 15.6608 13.9369 15.6309 14.1448C15.5809 14.4914 15.6614 14.8542 15.8224 15.5796L15.8799 15.8388C16.1685 17.1398 16.3128 17.7902 16.1327 18.11C15.9709 18.3972 15.6728 18.5811 15.3435 18.5968C14.9769 18.6143 14.4604 18.1934 13.4273 17.3516C12.7467 16.797 12.4064 16.5197 12.0286 16.4114C11.6834 16.3124 11.3173 16.3124 10.972 16.4114C10.5942 16.5197 10.2539 16.797 9.57331 17.3516C8.54025 18.1934 8.02372 18.6143 7.65714 18.5968C7.32785 18.5811 7.02977 18.3972 6.86794 18.11C6.68778 17.7902 6.8321 17.1398 7.12075 15.8388L7.17826 15.5796C7.33921 14.8542 7.41969 14.4914 7.36975 14.1448C7.33979 13.9369 7.27585 13.7353 7.1805 13.5481C7.02154 13.2361 6.74671 12.9861 6.19706 12.486L5.87059 12.189C4.69491 11.1194 4.10708 10.5846 4.18803 10.0737C4.2048 9.96794 4.23918 9.8657 4.28975 9.77128C4.53394 9.31536 5.33355 9.24375 6.93278 9.10052C7.87749 9.01592 8.34985 8.97361 8.72824 8.74555C8.83437 8.68158 8.93405 8.60747 9.02587 8.52426C9.35325 8.22759 9.52821 7.79142 9.87813 6.91907Z" fill="#A5C3CB" stroke="#A5C3CB"/>
</svg>
